# xmcd
#
# Track frame offsets:
#	150
#	14263
#	25820
#	41744
#	61978
#	76589
#	87828
#	99464
#	118013
#	129935
#
# Disc length: 1934 seconds
# Revision: 0
# Processed by: cddbd v1.5.2PL0 Copyright (c) Steve Scherf et al.
# Submitted via: dBpowerAMP V12.0
#
DISCID=6e078c0a
DTITLE=Sister Mary - Nothing More Nothing Less
DYEAR=2012
DGENRE=Blues
TTITLE0=Mercy
TTITLE1=Heart Attack
TTITLE2=One Hundred Acres
TTITLE3=Book On A Shelf
TTITLE4=Bury Me
TTITLE5=If You Just Listen
TTITLE6=Who Are You
TTITLE7=Born To Run
TTITLE8=When I Go Home
TTITLE9=Don't Ask
EXTD=
EXTT0=
EXTT1=
EXTT2=
EXTT3=
EXTT4=
EXTT5=
EXTT6=
EXTT7=
EXTT8=
EXTT9=
PLAYORDER=
